<svg xmlns="http://www.w3.org/2000/svg" viewBox="0 0 400 300" fill="none">
  <defs>
    <linearGradient id="grad1" x1="0%" y1="0%" x2="100%" y2="100%">
      <stop offset="0%" style="stop-color:#4fb3ff;stop-opacity:0.3" />
      <stop offset="100%" style="stop-color:#7affc6;stop-opacity:0.1" />
    </linearGradient>
    <linearGradient id="grad2" x1="0%" y1="0%" x2="100%" y2="0%">
      <stop offset="0%" style="stop-color:#4fb3ff;stop-opacity:0.6" />
      <stop offset="100%" style="stop-color:#7affc6;stop-opacity:0.6" />
    </linearGradient>
  </defs>
  
  <rect width="400" height="300" fill="url(#grad1)" rx="16"/>
  
  <circle cx="80" cy="80" r="4" fill="#4fb3ff"/>
  <circle cx="120" cy="120" r="3" fill="#7affc6"/>
  <circle cx="60" cy="160" r="5" fill="#4fb3ff"/>
  <circle cx="100" cy="200" r="3" fill="#7affc6"/>
  <circle cx="320" cy="60" r="4" fill="#7affc6"/>
  <circle cx="360" cy="100" r="3" fill="#4fb3ff"/>
  <circle cx="340" cy="220" r="4" fill="#4fb3ff"/>
  <circle cx="280" cy="180" r="3" fill="#7affc6"/>
  
  <line x1="80" y1="80" x2="120" y2="120" stroke="url(#grad2)" stroke-width="1.5" opacity="0.5"/>
  <line x1="120" y1="120" x2="100" y2="200" stroke="url(#grad2)" stroke-width="1.5" opacity="0.5"/>
  <line x1="60" y1="160" x2="100" y2="200" stroke="url(#grad2)" stroke-width="1.5" opacity="0.5"/>
  <line x1="320" y1="60" x2="360" y2="100" stroke="url(#grad2)" stroke-width="1.5" opacity="0.5"/>
  <line x1="360" y1="100" x2="340" y2="220" stroke="url(#grad2)" stroke-width="1.5" opacity="0.5"/>
  
  <rect x="180" y="60" width="80" height="60" rx="8" stroke="#4fb3ff" stroke-width="2" fill="none" opacity="0.6"/>
  <rect x="200" y="80" width="40" height="4" rx="2" fill="#4fb3ff" opacity="0.4"/>
  <rect x="200" y="92" width="30" height="4" rx="2" fill="#7affc6" opacity="0.4"/>
  <rect x="200" y="104" width="35" height="4" rx="2" fill="#4fb3ff" opacity="0.4"/>
  
  <path d="M220 180 L240 140 L260 160 L280 120 L300 150" stroke="url(#grad2)" stroke-width="2" fill="none" stroke-linecap="round" stroke-linejoin="round" opacity="0.7"/>
  <circle cx="220" cy="180" r="4" fill="#4fb3ff"/>
  <circle cx="240" cy="140" r="4" fill="#7affc6"/>
  <circle cx="260" cy="160" r="4" fill="#4fb3ff"/>
  <circle cx="280" cy="120" r="4" fill="#7affc6"/>
  <circle cx="300" cy="150" r="4" fill="#4fb3ff"/>
  
  <rect x="160" y="210" width="120" height="50" rx="6" stroke="#7affc6" stroke-width="1.5" fill="none" opacity="0.5"/>
  <circle cx="185" cy="235" r="8" stroke="#4fb3ff" stroke-width="1.5" fill="none" opacity="0.6"/>
  <path d="M182 235 L185 238 L190 232" stroke="#4fb3ff" stroke-width="1.5" fill="none" stroke-linecap="round" stroke-linejoin="round" opacity="0.8"/>
  <rect x="210" y="228" width="50" height="3" rx="1.5" fill="#4fb3ff" opacity="0.4"/>
  <rect x="210" y="236" width="35" height="3" rx="1.5" fill="#7affc6" opacity="0.4"/>
</svg>
