<svg xmlns="http://www.w3.org/2000/svg" viewBox="0 0 500 350" fill="none">
  <defs>
    <linearGradient id="g1" x1="0%" y1="0%" x2="100%" y2="100%">
      <stop offset="0%" style="stop-color:#4fb3ff;stop-opacity:0.4" />
      <stop offset="100%" style="stop-color:#7affc6;stop-opacity:0.2" />
    </linearGradient>
  </defs>
  <rect width="500" height="350" fill="url(#g1)" rx="12"/>
  
  <text x="60" y="80" font-family="monospace" font-size="14" fill="#e8eef5" opacity="0.8">
    <tspan fill="#4fb3ff">func</tspan> <tspan fill="#7affc6">main</tspan>() {
  </text>
  <text x="80" y="105" font-family="monospace" font-size="14" fill="#e8eef5" opacity="0.6">
    <tspan fill="#4fb3ff">config</tspan> := <tspan fill="#7affc6">Load</tspan>()
  </text>
  <text x="80" y="130" font-family="monospace" font-size="14" fill="#e8eef5" opacity="0.6">
    server.<tspan fill="#4fb3ff">Listen</tspan>()
  </text>
  <text x="60" y="155" font-family="monospace" font-size="14" fill="#e8eef5" opacity="0.8">}</text>
  
  <path d="M280 60 L320 60 L320 100 L360 100" stroke="#4fb3ff" stroke-width="2" fill="none" stroke-linecap="round" opacity="0.7"/>
  <circle cx="280" cy="60" r="6" fill="#4fb3ff"/>
  <circle cx="360" cy="100" r="6" fill="#7affc6"/>
  
  <rect x="270" y="140" width="100" height="70" rx="8" stroke="#7affc6" stroke-width="2" fill="none" opacity="0.7"/>
  <rect x="285" y="155" width="70" height="4" rx="2" fill="#4fb3ff" opacity="0.5"/>
  <rect x="285" y="168" width="50" height="4" rx="2" fill="#7affc6" opacity="0.5"/>
  <rect x="285" y="181" width="60" height="4" rx="2" fill="#4fb3ff" opacity="0.5"/>
  <rect x="285" y="194" width="40" height="4" rx="2" fill="#7affc6" opacity="0.5"/>
  
  <path d="M80 230 L120 230 L140 260 L180 200 L220 250" stroke="#4fb3ff" stroke-width="2" fill="none" stroke-linecap="round" stroke-linejoin="round" opacity="0.8"/>
  <circle cx="80" cy="230" r="5" fill="#4fb3ff"/>
  <circle cx="120" cy="230" r="5" fill="#7affc6"/>
  <circle cx="140" cy="260" r="5" fill="#4fb3ff"/>
  <circle cx="180" cy="200" r="5" fill="#7affc6"/>
  <circle cx="220" cy="250" r="5" fill="#4fb3ff"/>
  
  <path d="M300 230 Q340 200 380 230 T460 230" stroke="#7affc6" stroke-width="2" fill="none" stroke-linecap="round" opacity="0.7"/>
  <circle cx="300" cy="230" r="4" fill="#4fb3ff"/>
  <circle cx="340" cy="215" r="4" fill="#7affc6"/>
  <circle cx="380" cy="230" r="4" fill="#4fb3ff"/>
  <circle cx="420" cy="215" r="4" fill="#7affc6"/>
  <circle cx="460" cy="230" r="4" fill="#4fb3ff"/>
  
  <rect x="300" y="270" width="40" height="40" rx="4" stroke="#4fb3ff" stroke-width="1.5" fill="none" opacity="0.5"/>
  <text x="308" y="295" font-family="monospace" font-size="12" fill="#7affc6">&lt;/&gt;</text>
</svg>
